<svg xmlns="http://www.w3.org/2000/svg" viewBox="0 0 680 520">
  <style>
    .title { font: 600 14px 'SF Mono', 'Menlo', 'Monaco', monospace; fill: #1a1a1a; }
    .subtitle { font: 500 10px 'SF Mono', 'Menlo', 'Monaco', monospace; fill: #666; letter-spacing: 0.5px; }
    .section { font: 600 12px 'SF Mono', 'Menlo', 'Monaco', monospace; fill: #1a1a1a; }
    .item { font: 400 11px 'SF Mono', 'Menlo', 'Monaco', monospace; fill: #1a1a1a; }
    .time-badge { font: 600 11px 'SF Mono', 'Menlo', 'Monaco', monospace; fill: #1a1a1a; }
  </style>

  <!-- Background -->
  <rect width="680" height="520" fill="#fff"/>

  <!-- Title bar -->
  <rect x="40" y="20" width="600" height="50" fill="#f9a8d4" stroke="#1a1a1a" stroke-width="1.5"/>
  <text x="340" y="45" text-anchor="middle" class="title">Post-Market Checklist</text>
  <text x="340" y="60" text-anchor="middle" class="subtitle">END OF DAY PROCEDURES</text>

  <!-- Time badge -->
  <rect x="540" y="30" width="90" height="30" fill="#fff" stroke="#1a1a1a" stroke-width="1" rx="2"/>
  <text x="585" y="50" text-anchor="middle" class="time-badge">T+30 min</text>

  <!-- Main container -->
  <rect x="40" y="70" width="600" height="430" fill="none" stroke="#1a1a1a" stroke-width="1.5"/>

  <!-- Section 1: Trade Review -->
  <rect x="50" y="85" width="580" height="95" fill="#fbcfe8" stroke="#1a1a1a" stroke-width="1"/>
  <rect x="50" y="85" width="120" height="22" fill="#f9a8d4" stroke="#1a1a1a" stroke-width="1"/>
  <text x="110" y="100" text-anchor="middle" class="section">Trade Review</text>
  <text x="180" y="100" class="subtitle">ORDER AUDIT</text>

  <line x1="70" y1="120" x2="70" y2="165" stroke="#1a1a1a" stroke-width="1" stroke-dasharray="2,2"/>
  <circle cx="70" cy="120" r="4" fill="none" stroke="#1a1a1a" stroke-width="1.5"/>
  <text x="85" y="124" class="item">All orders completed (no pending)</text>
  <circle cx="70" cy="138" r="4" fill="none" stroke="#1a1a1a" stroke-width="1.5"/>
  <text x="85" y="142" class="item">Fills match expectations</text>
  <circle cx="70" cy="156" r="4" fill="none" stroke="#1a1a1a" stroke-width="1.5"/>
  <text x="85" y="160" class="item">Slippage within acceptable range</text>

  <circle cx="350" cy="156" r="4" fill="none" stroke="#1a1a1a" stroke-width="1.5"/>
  <text x="365" y="160" class="item">No anomalous trades (price/size/direction)</text>

  <!-- Section 2: P&L Confirmation -->
  <rect x="50" y="190" width="580" height="80" fill="#fef08a" stroke="#1a1a1a" stroke-width="1"/>
  <rect x="50" y="190" width="120" height="22" fill="#fde047" stroke="#1a1a1a" stroke-width="1"/>
  <text x="110" y="205" text-anchor="middle" class="section">P&amp;L Confirm</text>
  <text x="180" y="205" class="subtitle">DAILY P&amp;L</text>

  <line x1="70" y1="225" x2="70" y2="255" stroke="#1a1a1a" stroke-width="1" stroke-dasharray="2,2"/>
  <circle cx="70" cy="225" r="4" fill="none" stroke="#1a1a1a" stroke-width="1.5"/>
  <text x="85" y="229" class="item">Daily P&amp;L calculated</text>
  <circle cx="70" cy="243" r="4" fill="none" stroke="#1a1a1a" stroke-width="1.5"/>
  <text x="85" y="247" class="item">Attribution complete (by strategy)</text>

  <circle cx="350" cy="243" r="4" fill="none" stroke="#1a1a1a" stroke-width="1.5"/>
  <text x="365" y="247" class="item">Drawdown monitor updated</text>

  <!-- Section 3: Position Reconciliation -->
  <rect x="50" y="280" width="580" height="80" fill="#99f6e4" stroke="#1a1a1a" stroke-width="1"/>
  <rect x="50" y="280" width="120" height="22" fill="#5eead4" stroke="#1a1a1a" stroke-width="1"/>
  <text x="110" y="295" text-anchor="middle" class="section">Position Recon</text>
  <text x="180" y="295" class="subtitle">RECONCILIATION</text>

  <line x1="70" y1="315" x2="70" y2="345" stroke="#1a1a1a" stroke-width="1" stroke-dasharray="2,2"/>
  <circle cx="70" cy="315" r="4" fill="none" stroke="#1a1a1a" stroke-width="1.5"/>
  <text x="85" y="319" class="item">System positions = Broker positions</text>
  <circle cx="70" cy="333" r="4" fill="none" stroke="#1a1a1a" stroke-width="1.5"/>
  <text x="85" y="337" class="item">Market value calculation correct</text>

  <circle cx="350" cy="333" r="4" fill="none" stroke="#1a1a1a" stroke-width="1.5"/>
  <text x="365" y="337" class="item">Margin sufficient</text>

  <!-- Section 4: Log Archive -->
  <rect x="50" y="370" width="580" height="65" fill="#a5f3fc" stroke="#1a1a1a" stroke-width="1"/>
  <rect x="50" y="370" width="120" height="22" fill="#67e8f9" stroke="#1a1a1a" stroke-width="1"/>
  <text x="110" y="385" text-anchor="middle" class="section">Log Archive</text>
  <text x="180" y="385" class="subtitle">BACKUP</text>

  <line x1="70" y1="405" x2="70" y2="420" stroke="#1a1a1a" stroke-width="1" stroke-dasharray="2,2"/>
  <circle cx="70" cy="405" r="4" fill="none" stroke="#1a1a1a" stroke-width="1.5"/>
  <text x="85" y="409" class="item">Logs backed up</text>

  <circle cx="350" cy="405" r="4" fill="none" stroke="#1a1a1a" stroke-width="1.5"/>
  <text x="365" y="409" class="item">Key events recorded</text>

  <!-- Completion status indicator -->
  <rect x="50" y="450" width="580" height="35" fill="#e5e7eb" stroke="#1a1a1a" stroke-width="1"/>
  <text x="340" y="472" text-anchor="middle" class="subtitle">After all checks complete, system enters overnight standby mode</text>

  <!-- Moon icon decoration -->
  <circle cx="50" cy="45" r="10" fill="#fff" stroke="#1a1a1a" stroke-width="1.5"/>
  <circle cx="54" cy="43" r="8" fill="#f9a8d4"/>
</svg>
