<svg xmlns="http://www.w3.org/2000/svg" viewBox="0 0 680 420">
  <style>
    .title { font: 600 14px 'SF Mono', 'Menlo', 'Monaco', monospace; fill: #1a1a1a; }
    .subtitle { font: 500 10px 'SF Mono', 'Menlo', 'Monaco', monospace; fill: #666; letter-spacing: 0.5px; }
    .level-num { font: 700 14px 'SF Mono', 'Menlo', 'Monaco', monospace; fill: #fff; }
    .level-title { font: 600 12px 'SF Mono', 'Menlo', 'Monaco', monospace; fill: #1a1a1a; }
    .level-sub { font: 500 10px 'SF Mono', 'Menlo', 'Monaco', monospace; fill: #666; }
    .desc { font: 400 10px 'SF Mono', 'Menlo', 'Monaco', monospace; fill: #1a1a1a; }
    .arrow-label { font: 500 9px 'SF Mono', 'Menlo', 'Monaco', monospace; fill: #666; }
  </style>

  <!-- Background -->
  <rect width="680" height="420" fill="#fff"/>

  <!-- Title -->
  <text x="340" y="28" text-anchor="middle" class="title">执行模拟器层次</text>
  <text x="340" y="44" text-anchor="middle" class="subtitle">EXECUTION SIMULATOR LEVELS</text>

  <!-- Main container -->
  <rect x="30" y="55" width="620" height="350" fill="none" stroke="#1a1a1a" stroke-width="1.5"/>

  <!-- Complexity arrow on left -->
  <line x1="50" y1="380" x2="50" y2="80" stroke="#1a1a1a" stroke-width="1.5" marker-end="url(#arrowhead)"/>
  <text x="55" y="230" class="arrow-label" transform="rotate(-90, 55, 230)">复杂度 / COMPLEXITY</text>

  <!-- Accuracy arrow on right -->
  <line x1="630" y1="380" x2="630" y2="80" stroke="#1a1a1a" stroke-width="1.5" marker-end="url(#arrowhead)"/>
  <text x="625" y="230" class="arrow-label" transform="rotate(90, 625, 230)">精度 / ACCURACY</text>

  <defs>
    <marker id="arrowhead" markerWidth="10" markerHeight="7" refX="9" refY="3.5" orient="auto">
      <polygon points="0 0, 10 3.5, 0 7" fill="#1a1a1a"/>
    </marker>
  </defs>

  <!-- Level 1: Fixed Slippage (bottom - simplest) -->
  <rect x="80" y="325" width="520" height="65" fill="#a5f3fc" stroke="#1a1a1a" stroke-width="1.5"/>
  <rect x="80" y="325" width="40" height="65" fill="#67e8f9" stroke="#1a1a1a" stroke-width="1"/>
  <text x="100" y="363" text-anchor="middle" class="level-num">1</text>

  <text x="140" y="345" class="level-title">固定滑点模型</text>
  <text x="300" y="345" class="level-sub">FIXED SLIPPAGE MODEL</text>
  <text x="140" y="362" class="desc">每笔交易扣除固定比例（如 0.1%）</text>
  <text x="140" y="378" class="desc" style="fill:#666">简单但不准确</text>

  <!-- Level 2: Square Root Impact -->
  <rect x="80" y="250" width="520" height="65" fill="#99f6e4" stroke="#1a1a1a" stroke-width="1.5"/>
  <rect x="80" y="250" width="40" height="65" fill="#5eead4" stroke="#1a1a1a" stroke-width="1"/>
  <text x="100" y="288" text-anchor="middle" class="level-num">2</text>

  <text x="140" y="270" class="level-title">根号冲击模型</text>
  <text x="300" y="270" class="level-sub">SQUARE ROOT IMPACT</text>
  <text x="140" y="287" class="desc">滑点 = f(订单大小, 波动率, ADV)</text>
  <text x="140" y="303" class="desc" style="fill:#666">中等复杂度，适合日频策略</text>

  <!-- Level 3: Order Book Replay -->
  <rect x="80" y="175" width="520" height="65" fill="#fef08a" stroke="#1a1a1a" stroke-width="1.5"/>
  <rect x="80" y="175" width="40" height="65" fill="#fde047" stroke="#1a1a1a" stroke-width="1"/>
  <text x="100" y="213" text-anchor="middle" class="level-num">3</text>

  <text x="140" y="195" class="level-title">订单簿回放模型</text>
  <text x="300" y="195" class="level-sub">ORDER BOOK REPLAY</text>
  <text x="140" y="212" class="desc">用历史 L2 数据模拟订单穿透</text>
  <text x="140" y="228" class="desc" style="fill:#666">高精度，需要 Tick 数据</text>

  <!-- Level 4: Full Simulation (top - most complex) -->
  <rect x="80" y="100" width="520" height="65" fill="#fbcfe8" stroke="#1a1a1a" stroke-width="1.5"/>
  <rect x="80" y="100" width="40" height="65" fill="#f9a8d4" stroke="#1a1a1a" stroke-width="1"/>
  <text x="100" y="138" text-anchor="middle" class="level-num">4</text>

  <text x="140" y="120" class="level-title">全仿真环境</text>
  <text x="300" y="120" class="level-sub">FULL SIMULATION</text>
  <text x="140" y="137" class="desc">模拟排队、部分成交、撤单</text>
  <text x="140" y="153" class="desc" style="fill:#666">最接近实盘，开发成本最高</text>

  <!-- Use case indicators on right side -->
  <text x="520" y="358" class="desc">快速筛选策略</text>
  <text x="520" y="283" class="desc">日频/周频策略</text>
  <text x="520" y="208" class="desc">分钟/秒频策略</text>
  <text x="520" y="133" class="desc">高频/做市策略</text>
</svg>